# xmcd
#
# Track frame offsets:
#	150
#	11213
#	22457
#	32976
#	45697
#	55917
#	65650
#	77717
#	87157
#	97637
#	107392
#	117074
#	127760
#	137413
#	146391
#	155551
#
# Disc length: 2204 seconds
#
# Revision: 0
# Processed by: cddbd v1.5.2PL0 Copyright (c) Steve Scherf et al.
# Submitted via: EZCDAudioConverter 2.2.2.1
#
DISCID=cb089a10
DTITLE=Sunshine Ruby - Sweetheart Of The Big ''D'' Jamboree
DYEAR=2005
DGENRE=Country
TTITLE0=Little Girl Love
TTITLE1=Too Young To Tango
TTITLE2=Hearts Weren't Meant To Be Broken
TTITLE3=That Ain't In Any Catalog
TTITLE4=Datin'
TTITLE5=I Got My First Kiss Last Night
TTITLE6=Nobody Asked Me To Dance
TTITLE7=I Wanna Do Something For Santa Claus
TTITLE8=Too Fast For The Chimney
TTITLE9=Too Old For Toys (Too Young For Boys)
TTITLE10=Hankerin'
TTITLE11=Don't You Know I Love You
TTITLE12=I'm So Bashful
TTITLE13=I Don't Care What The General Said
TTITLE14=I Think He Winked At Me
TTITLE15=My Daddy Has Two Sweethearts
EXTD=
EXTT0=
EXTT1=
EXTT2=
EXTT3=
EXTT4=
EXTT5=
EXTT6=
EXTT7=
EXTT8=
EXTT9=
EXTT10=
EXTT11=
EXTT12=
EXTT13=
EXTT14=
EXTT15=
PLAYORDER=
